<?xml version="1.0" encoding="iso-8859-1"?>
<!-- Uploaded to: SVG Repo, www.svgrepo.com, Generator: SVG Repo Mixer Tools -->
<svg version="1.1" id="Layer_1" xmlns="http://www.w3.org/2000/svg" xmlns:xlink="http://www.w3.org/1999/xlink" 
	 viewBox="0 0 511.999 511.999" xml:space="preserve">
<g>
	<ellipse style="fill:#FFE7CC;" cx="157.277" cy="266.209" rx="34.212" ry="34.095"/>
	<ellipse style="fill:#FFE7CC;" cx="354.721" cy="266.209" rx="34.212" ry="34.095"/>
</g>
<path style="fill:#808080;" d="M81.963,504.163c-6.407,0-11.603-5.176-11.603-11.563v-40.47c0-36.98,30.188-67.065,67.295-67.065
	h236.689c37.106,0,67.295,30.085,67.295,67.065v40.47c0,6.386-5.195,11.563-11.603,11.563H81.963z"/>
<path style="opacity:0.1;enable-background:new    ;" d="M113.893,492.6v-40.47c0-36.98,30.188-67.065,67.295-67.065h-43.533
	c-37.106,0-67.295,30.085-67.295,67.065v40.47c0,6.386,5.195,11.563,11.603,11.563h43.533
	C119.088,504.163,113.893,498.987,113.893,492.6z"/>
<g>
	<circle style="fill:#EF645E;" cx="255.999" cy="445.127" r="13.061"/>
	<path style="fill:#EF645E;" d="M269.06,496.327c0-7.214-5.848-13.061-13.061-13.061c-7.213,0-13.061,5.847-13.061,13.061
		c0,2.945,0.986,5.652,2.63,7.837h20.862C268.074,501.978,269.06,499.271,269.06,496.327z"/>
	<path style="fill:#EF645E;" d="M346.096,369.122c0,13.411-10.909,24.282-24.366,24.282H190.268
		c-13.457,0-24.366-10.872-24.366-24.282l0,0c0-13.411,10.91-24.283,24.366-24.283h131.462
		C335.188,344.838,346.096,355.71,346.096,369.122L346.096,369.122z"/>
</g>
<path style="opacity:0.1;enable-background:new    ;" d="M187.608,369.122c0-13.411,10.909-24.283,24.366-24.283h-21.707
	c-13.457,0-24.366,10.872-24.366,24.283s10.91,24.282,24.366,24.282h21.707C198.517,393.404,187.608,382.532,187.608,369.122z"/>
<g>
	<path style="fill:#EF645E;" d="M302.348,385.859c16.238,16.181,23.198,35.482,15.546,43.108
		c-7.653,7.626-27.019,0.691-43.257-15.493c-16.237-16.182-23.198-35.482-15.545-43.109
		C266.744,362.739,286.11,369.677,302.348,385.859z"/>
	<path style="fill:#EF645E;" d="M237.362,413.474c-16.239,16.182-35.605,23.118-43.257,15.493
		c-7.653-7.626-0.693-26.927,15.545-43.108c16.238-16.182,35.604-23.119,43.257-15.494
		C260.559,377.993,253.599,397.292,237.362,413.474z"/>
</g>
<path style="fill:#FFE7CC;" d="M366.496,276.641c0,53.02-55.029,96.001-108.229,96.001h-4.534
	c-53.202,0-108.229-42.981-108.229-96.001v-65.507c0-53.02,43.128-96.001,96.33-96.001h28.332c53.202,0,96.33,42.981,96.33,96.001
	V276.641z"/>
<path style="fill:#C69C6D;" d="M366.496,251.298v-40.165c0-53.02-43.128-96.001-96.33-96.001h-10.506v40.164
	c0,53.02,43.128,96.001,96.33,96.001h10.506V251.298z"/>
<path style="opacity:0.1;enable-background:new    ;" d="M178.157,276.641v-65.507c0-52.3,41.965-94.828,94.169-95.974
	c-0.719-0.016-1.439-0.027-2.161-0.027h-28.332c-53.202,0-96.33,42.981-96.33,96.001v65.507c0,53.02,55.027,96.001,108.229,96.001
	h4.534c4.685,0,9.385-0.341,14.061-0.984C223.92,364.987,178.157,324.991,178.157,276.641z"/>
<path style="fill:#C69C6D;" d="M321.828,155.297v-25.201c-14.929-9.473-32.652-14.963-51.662-14.963h-28.332
	c-53.202,0-96.33,42.981-96.33,96.001v25.201c14.929,9.473,32.652,14.963,51.662,14.963h28.332
	C278.699,251.298,321.828,208.317,321.828,155.297z"/>
<path style="fill:#808080;" d="M399.928,81.249c0-24.326-19.788-44.048-44.199-44.048c-6.142,0-11.99,1.251-17.306,3.507
	c-4.963-18.915-22.225-32.872-42.759-32.872c-16.965,0-31.691,9.532-39.099,23.509c-7.408-13.977-22.133-23.508-39.098-23.508
	c-20.7,0-38.071,14.184-42.874,33.331c-5.584-2.539-11.784-3.965-18.323-3.965c-24.41,0-44.199,19.721-44.199,44.048
	c0,20.625,14.227,37.934,33.433,42.726v88.742h220.993v-88.742C385.701,119.183,399.928,101.875,399.928,81.249z"/>
<rect x="145.501" y="184.424" style="fill:#EF645E;" width="220.996" height="28.296"/>
<path style="opacity:0.1;enable-background:new    ;" d="M144.729,81.249c0-18.575,11.543-34.453,27.866-40.928
	c-5.052-2.006-10.557-3.119-16.325-3.119c-24.41,0-44.199,19.721-44.199,44.048c0,20.625,14.227,37.934,33.433,42.726v88.742h32.658
	v-88.742C158.955,119.183,144.729,101.875,144.729,81.249z"/>
<rect x="145.501" y="184.424" style="opacity:0.1;enable-background:new    ;" width="32.653" height="28.296"/>
<path d="M209.533,299.786c4.328,0,7.837-3.509,7.837-7.837V281.6c0-4.328-3.509-7.837-7.837-7.837s-7.837,3.509-7.837,7.837v10.35
	C201.697,296.278,205.205,299.786,209.533,299.786z"/>
<path d="M302.465,299.786c4.328,0,7.837-3.509,7.837-7.837V281.6c0-4.328-3.509-7.837-7.837-7.837c-4.328,0-7.837,3.509-7.837,7.837
	v10.35C294.628,296.278,298.137,299.786,302.465,299.786z"/>
<path d="M255.999,337.455C256,337.455,255.999,337.455,255.999,337.455c8.891,0,17.251-3.463,23.537-9.75
	c3.06-3.06,3.06-8.023,0-11.082c-3.061-3.062-8.023-3.061-11.083,0c-3.327,3.327-7.75,5.159-12.454,5.159
	c-4.704,0-9.127-1.832-12.454-5.159c-3.061-3.061-8.023-3.061-11.082,0c-3.061,3.06-3.061,8.023,0,11.082
	C238.749,333.993,247.108,337.455,255.999,337.455z"/>
<path d="M235.101,445.127c0,11.523,9.375,20.898,20.898,20.898c11.523,0,20.898-9.375,20.898-20.898
	c0-11.523-9.375-20.898-20.898-20.898C244.476,424.229,235.101,433.603,235.101,445.127z M261.223,445.127
	c0,2.881-2.344,5.224-5.224,5.224c-2.881,0-5.224-2.344-5.224-5.224c0-2.881,2.344-5.225,5.224-5.225
	C258.88,439.902,261.223,442.246,261.223,445.127z"/>
<path d="M441.638,473.861c-4.328,0-7.837,3.509-7.837,7.837V492.6c0,2.054-1.69,3.726-3.766,3.726H300.407v-57.712
	c3.073,0.834,6.033,1.287,8.796,1.287c5.77,0,10.687-1.861,14.223-5.383c3.541-3.53,5.414-8.444,5.414-14.212
	c0-5.758-1.928-12.362-5.396-19.112c7.638-0.401,14.574-3.475,19.897-8.292h31.003c32.785,0,59.458,26.57,59.458,59.228
	c0,4.328,3.509,7.837,7.837,7.837c4.328,0,7.837-3.509,7.837-7.837c0-41.301-33.703-74.901-75.131-74.901h-21.456
	c0.678-2.591,1.046-5.307,1.046-8.107c0-9.483-4.155-18.006-10.73-23.888c12.215-11.802,21.064-25.317,26.136-39.718
	c16.002-5.932,27.434-21.309,27.434-39.306c0-16.063-9.107-30.037-22.441-37.074v-99.418c19.961-7.583,33.433-26.714,33.433-48.469
	c0-28.609-23.343-51.884-52.036-51.884c-4.247,0-8.42,0.503-12.476,1.502C335.037,12.35,316.496,0,295.664,0
	c-15.199,0-29.346,6.55-39.099,17.641C246.813,6.55,232.666,0,217.467,0c-21.002,0-39.566,12.447-47.708,31.132
	c-4.375-1.174-8.886-1.766-13.49-1.766c-28.693,0-52.036,23.275-52.036,51.884c0,21.755,13.472,40.886,33.433,48.469v15.524
	c0,4.328,3.509,7.837,7.837,7.837c4.328,0,7.837-3.509,7.837-7.837v-13.43h18.021c4.328,0,7.837-3.509,7.837-7.837
	s-3.509-7.837-7.837-7.837h-24.818c-15.726-4.329-26.635-18.545-26.635-34.889c0-19.967,16.312-36.211,36.362-36.211
	c3.233,0,6.401,0.42,9.471,1.248c-0.2,1.853-0.308,3.72-0.308,5.598c0,4.328,3.509,7.837,7.837,7.837
	c4.328,0,7.837-3.509,7.837-7.837c0-3.074,0.4-6.104,1.159-9.044h-0.006c4.129-16.007,18.57-27.167,35.209-27.167
	c13.522,0,25.851,7.411,32.173,19.342c1.359,2.564,4.023,4.167,6.925,4.167s5.565-1.603,6.923-4.167
	c6.325-11.931,18.654-19.342,32.176-19.342c16.538,0,31.003,11.114,35.18,27.025c0.013,0.048,0.038,0.142,0.038,0.142
	c0.758,2.934,1.145,5.959,1.145,9.044c0,4.328,3.509,7.837,7.837,7.837s7.837-3.509,7.837-7.837c0-1.976-0.122-3.933-0.342-5.873
	c2.723-0.639,5.52-0.973,8.371-0.973c20.049,0,36.362,16.244,36.362,36.211c0,16.344-10.91,30.56-26.635,34.889h-42.584
	c-4.328,0-7.837,3.509-7.837,7.837s3.509,7.837,7.837,7.837h35.787v44.776h-50.938v-17.016c0-4.328-3.509-7.837-7.837-7.837
	s-7.837,3.509-7.837,7.837v17.016h-28.212v-17.016c0-4.328-3.509-7.837-7.837-7.837s-7.837,3.509-7.837,7.837v17.016h-28.211
	v-17.016c0-4.328-3.509-7.837-7.837-7.837c-4.328,0-7.837,3.509-7.837,7.837v17.016H153.34v-3.135c0-4.328-3.509-7.837-7.837-7.837
	c-4.328,0-7.837,3.509-7.837,7.837v38.661v0.603v16.417c-13.333,7.037-22.441,21.012-22.441,37.074
	c0,17.998,11.432,33.374,27.434,39.306c5.072,14.401,13.921,27.914,26.136,39.718c-6.576,5.883-10.73,14.405-10.73,23.888
	c0,2.8,0.368,5.516,1.046,8.107h-21.456c-41.427,0-75.131,33.601-75.131,74.901v40.47c0,10.697,8.721,19.4,19.439,19.4h348.072
	c10.719,0,19.439-8.703,19.439-19.4v-10.901C449.474,477.37,445.966,473.861,441.638,473.861z M374.333,276.641v-27.947
	c4.198,4.651,6.768,10.784,6.768,17.516c0,6.905-2.702,13.185-7.095,17.875C374.221,281.616,374.333,279.133,374.333,276.641z
	 M130.899,266.21c0-6.73,2.568-12.865,6.768-17.516v27.947c0,2.492,0.112,4.975,0.327,7.444
	C133.6,279.394,130.899,273.114,130.899,266.21z M312.362,423.416c-0.518,0.517-1.67,0.813-3.159,0.813
	c-6.309,0-17.733-5.042-29.035-16.304c-6.795-6.772-11.315-13.575-13.852-19.294l15.631,15.576c1.529,1.523,3.53,2.286,5.532,2.286
	c2.009,0,4.02-0.769,5.552-2.305c3.055-3.066,3.046-8.028-0.02-11.082l-14.541-14.491c0.271-0.049,0.541-0.093,0.812-0.145
	c5.338,2.638,11.448,6.875,17.534,12.941c11.294,11.256,16.35,22.623,16.35,28.897C313.165,421.774,312.873,422.907,312.362,423.416
	z M321.73,385.567h-8.966c-1.539-1.787-3.165-3.545-4.885-5.259c-2.739-2.729-5.589-5.229-8.49-7.486
	c11.196-4.186,21.927-10.006,31.667-17.268c4.346,2.966,7.205,7.939,7.205,13.566C338.26,378.19,330.844,385.567,321.73,385.567z
	 M358.659,243.461h-2.67c-20.167,0-38.755-6.78-53.647-18.146c1.418-1.545,2.789-3.133,4.113-4.762h52.204V243.461z
	 M153.339,192.261h205.319v12.619H153.339V192.261z M153.339,220.554h131.558c-15.712,14.219-36.549,22.907-59.399,22.907h-28.332
	c-15.454,0-30.517-3.983-43.825-11.557v-11.351H153.339z M153.339,276.641v-27.133c13.66,6.322,28.581,9.627,43.825,9.627h28.332
	c24.685,0,47.386-8.61,65.254-22.968c17.867,14.355,40.558,22.968,65.239,22.968h2.67v17.506c0,22.685-11.154,44.675-31.408,61.916
	c-19.595,16.681-44.738,26.249-68.985,26.249h-4.534c-24.247,0-49.39-9.567-68.985-26.249
	C164.493,321.316,153.339,299.326,153.339,276.641z M215.182,391.41c6.087-6.067,12.195-10.303,17.533-12.941
	c0.271,0.051,0.541,0.096,0.813,0.145l-14.541,14.491c-3.066,3.055-3.074,8.017-0.02,11.082c1.531,1.537,3.541,2.305,5.552,2.305
	c2.001,0,4.003-0.762,5.532-2.286l15.631-15.577c-2.536,5.719-7.057,12.523-13.852,19.294
	c-11.302,11.264-22.725,16.306-29.035,16.306c-1.489,0-2.64-0.296-3.159-0.812c-0.511-0.509-0.805-1.643-0.805-3.11
	C198.833,414.034,203.888,402.665,215.182,391.41z M190.268,385.567c-9.115,0-16.529-7.377-16.529-16.446
	c0-5.628,2.859-10.6,7.205-13.566c9.738,7.262,20.47,13.082,31.666,17.268c-2.901,2.257-5.751,4.755-8.49,7.486
	c-1.72,1.714-3.346,3.473-4.885,5.259h-8.966V385.567z M250.774,496.327c0-2.881,2.344-5.224,5.224-5.224
	c2.881,0,5.224,2.344,5.224,5.224H250.774z M284.734,496.327h-7.837c0-11.523-9.375-20.898-20.898-20.898
	c-11.523,0-20.898,9.375-20.898,20.898H81.963c-2.076,0-3.766-1.672-3.766-3.726v-40.47c0-32.658,26.672-59.228,59.458-59.228
	h31.003c5.324,4.816,12.259,7.89,19.896,8.292c-3.467,6.75-5.395,13.354-5.395,19.112c0,5.768,1.872,10.682,5.415,14.212
	c3.535,3.522,8.452,5.383,14.222,5.383c11.813,0,27.178-7.999,40.099-20.876c5.253-5.235,9.679-10.874,13.105-16.515
	c3.425,5.64,7.852,11.28,13.105,16.515c4.963,4.945,10.286,9.163,15.63,12.493v64.808H284.734z"/>
</svg>